<?xml version="1.0" encoding="UTF-8"?>
<svg width="39px" height="36px" viewBox="0 0 39 36" version="1.1" xmlns="http://www.w3.org/2000/svg" xmlns:xlink="http://www.w3.org/1999/xlink">
    <!-- Generator: sketchtool 52.2 (67145) - http://www.bohemiancoding.com/sketch -->
    <title>64AB226C-B897-4D29-8061-950674A37E9B</title>
    <desc>Created with sketchtool.</desc>
    <g id="Journeys" stroke="none" stroke-width="1" fill="none" fill-rule="evenodd">
        <g id="Journey-Driving-Events" transform="translate(-30.000000, -470.000000)" fill-rule="nonzero">
            <g id="Event-Card" transform="translate(16.000000, 455.000000)">
                <g id="Group-2" transform="translate(14.000000, 15.000000)">
                    <path d="M22.8493723,2.01936775 L38.445072,29.7174126 C39.5525316,31.6842667 38.950607,34.2332125 37.1006358,35.4106424 C36.4946696,35.7963147 35.8016499,36 35.0954028,36 L3.90400345,36 C1.74788188,36 0,34.1416853 0,31.849338 C0,31.0984696 0.191581018,30.3616643 0.554334267,29.7174126 L16.150034,2.01936775 C17.2574936,0.0525136755 19.6549649,-0.587441061 21.5049361,0.589988843 C22.0570285,0.941372755 22.5188699,1.43239363 22.8493723,2.01936775 Z" id="Triangle-2" fill="#003E52"></path>
                    <path d="M20.6273839,3.08935415 C20.5161382,2.88897805 20.3606845,2.72135762 20.1748526,2.60140525 C19.5521605,2.19946449 18.7451823,2.41792666 18.3724163,3.08935415 L2.62408645,31.4553051 C2.50198532,31.6752341 2.4375,31.9267583 2.4375,32.1830832 C2.4375,32.9656248 3.02582928,33.6 3.75157023,33.6 L35.2482299,33.6 C35.4859496,33.6 35.7192169,33.5304677 35.9231824,33.3988102 C36.5458745,32.9968695 36.7484797,32.1267326 36.3757137,31.4553051 L20.6273839,3.08935415 Z" id="Path" fill="#FF6D37"></path>
                    <path d="M19.4739943,12 L19.5262162,12 C20.6307857,12 21.5262162,12.8954305 21.5262162,14 C21.5262162,14.0752143 21.5219733,14.1503687 21.5135078,14.225105 L20.7603186,20.874475 C20.6876983,21.5155884 20.1453186,22 19.5001053,22 L19.5001053,22 C18.854892,22 18.3125123,21.5155884 18.2398919,20.874475 L17.4867028,14.225105 C17.3623807,13.1275542 18.1513385,12.1370305 19.2488893,12.0127084 C19.3236257,12.0042429 19.3987801,12 19.4739943,12 Z" id="Rectangle-4" fill="#003E52"></path>
                    <ellipse id="Oval-3" fill="#003E52" cx="19.5" cy="26.4470899" rx="2.5" ry="2.44708995"></ellipse>
                </g>
            </g>
        </g>
    </g>
</svg>